<svg id="b150cbab-e3fc-42c9-8f4b-4cf5aa78fd65" data-name="Layer 1" xmlns="http://www.w3.org/2000/svg" xmlns:xlink="http://www.w3.org/1999/xlink" viewBox="0 0 261.72 14.41"><defs><clipPath id="fe75096f-1cc7-445d-a586-7e8bcf257bc7"><rect width="261.72" height="14.41" fill="none"/></clipPath></defs><title>clove-club-logo</title><g clip-path="url(#fe75096f-1cc7-445d-a586-7e8bcf257bc7)"><path d="M255,2.69c0-1.26.17-1.51,1.29-1.51,1.8,0,3,.4,3,2.87,0,2.86-1.77,3-3.55,3H255ZM251,14.2h5.88v-.53c-1.47,0-1.79-.31-1.79-1.95V8h.78c2.58,0,5.9-.21,5.9-3.95,0-2.89-2.16-3.84-4.83-3.84H251V.74c1.47,0,1.78.31,1.78,2v9c0,1.64-.31,1.95-1.78,1.95ZM247.4,2.69c0-1.64.32-1.95,1.79-1.95V.21h-5.11V.74c1.47,0,1.79.31,1.79,2v7c0,2.63-.76,3.74-3.26,3.74s-3-1.64-3-3.74v-7c0-1.64.31-1.95,1.78-1.95V.21h-5.88V.74c1.47,0,1.79.31,1.79,2v7c0,3.07,1.39,4.71,5,4.71,4.33,0,5.06-2.33,5.06-4.71ZM224,7.2c0-3.27.44-6.19,3.25-6.19s3.26,2.92,3.26,6.19-.47,6.2-3.26,6.2S224,10.5,224,7.2m3.25,7.21c4.39,0,5.73-2.73,5.73-7.21S231.63,0,227.24,0s-5.73,2.73-5.73,7.2,1.36,7.21,5.73,7.21m-20.56-.21h5.88v-.53c-1.49,0-1.78-.31-1.78-1.95v-4h1.28l3.69,6.51H219v-.53c-1.1,0-1.41-.54-2.17-1.87l-2.5-4.43c1.68-.36,3.18-1,3.18-3.63S214.6.21,212.1.21h-5.42V.74c1.49,0,1.79.31,1.79,2v9c0,1.64-.3,1.95-1.79,1.95Zm4.1-11.51c0-1.2.12-1.51,1.32-1.51,1.68,0,3,.58,3,2.83,0,1.91-1.13,2.71-3,2.71h-1.28ZM203.2,8.82c0-1.64.27-1.95,1.66-1.95V6.34h-5.63v.53c1.38,0,1.66.31,1.66,2v4.24a7.23,7.23,0,0,1-1.91.34c-3.49,0-4.39-2.56-4.39-6.24,0-2.77.35-6.15,3.52-6.15A3.69,3.69,0,0,1,202,3.93h.61L202.48.61A14.52,14.52,0,0,0,198,0c-4.7,0-5.92,2.9-5.92,7.22,0,3.24,1.15,7.19,5.92,7.19a14.09,14.09,0,0,0,5.17-.86ZM168.9,14.2h5.88c2,0,5.57-.19,5.57-3.72,0-2.67-1.77-3.4-3.24-3.7v0a3.25,3.25,0,0,0,2.57-3.17c0-2.75-2.57-3.36-4.9-3.36H168.9V.74c1.49,0,1.79.31,1.79,2v9c0,1.64-.3,1.95-1.79,1.95ZM173,7.29h1.3C176,7.29,178,7.56,178,10c0,2.14-.94,3.19-3.17,3.19-1.7,0-1.78-.23-1.78-1.51Zm0-4.6c0-1.43.29-1.51,1.78-1.51,1.66,0,2.5.73,2.5,2.54s-1,2.6-3,2.6H173Zm-7.6,0c0-1.64.31-1.95,1.78-1.95V.21h-5.1V.74c1.47,0,1.78.31,1.78,2v7c0,2.63-.75,3.74-3.25,3.74s-3-1.64-3-3.74v-7c0-1.64.31-1.95,1.78-1.95V.21h-5.88V.74c1.47,0,1.79.31,1.79,2v7c0,3.07,1.38,4.71,5,4.71,4.32,0,5.06-2.33,5.06-4.71ZM141.06,14.2h10.16l.13-3.32h-.61c-.36,1.64-1,2.35-2.63,2.35h-1.55c-1.22,0-1.41-.31-1.41-1.51v-9c0-1.64.32-1.95,1.79-1.95V.21h-5.88V.74c1.47,0,1.78.31,1.78,2v9c0,1.64-.31,1.95-1.78,1.95Zm-2.56-2a6,6,0,0,1-3.68,1.07c-2.92,0-4.07-3-4.07-6.3,0-2.62.5-5.92,3.59-5.92a3.62,3.62,0,0,1,3.5,3.13h.61L138.33.63a13.44,13.44,0,0,0-4.2-.63c-4.69,0-5.86,3.11-5.86,6.93,0,4.73,1.64,7.48,6.19,7.48a9.18,9.18,0,0,0,4-.8Zm-32.18,2h10.23l.13-3h-.61c-.06,1.32-.65,2.08-2.46,2.08h-1.93c-1.09,0-1.26-.1-1.26-1.51V7.37h2.75c1.37,0,1.58.44,1.58,1.7h.56V4.73h-.56c0,1.38-.21,1.68-1.58,1.68h-2.75V2.69c0-1.18.23-1.51,1.26-1.51H113c2.36,0,2.63.94,2.71,2.08h.61l-.12-3h-9.9V.74c1.47,0,1.79.31,1.79,2v9c0,1.64-.32,1.95-1.79,1.95Zm-10,0h1.82l4.39-11.74c.51-1.39.89-1.72,2.33-1.72V.21H99.63V.74c1.28,0,1.72.23,1.72.77a3.37,3.37,0,0,1-.28,1l-3.36,9.05h0l-3.17-9a3.26,3.26,0,0,1-.25-1c0-.61.48-.77,1.49-.77V.21h-6V.74c1.57,0,1.82.33,2.43,2Zm-17-7c0-3.27.44-6.19,3.25-6.19s3.26,2.92,3.26,6.19-.47,6.2-3.26,6.2-3.25-2.9-3.25-6.2m3.25,7.21c4.39,0,5.73-2.73,5.73-7.21S87,0,82.59,0s-5.73,2.73-5.73,7.2,1.36,7.21,5.73,7.21M63.31,14.2H73.48l.12-3.32H73c-.35,1.64-.94,2.35-2.62,2.35H68.82c-1.22,0-1.41-.31-1.41-1.51v-9c0-1.64.31-1.95,1.78-1.95V.21H63.31V.74c1.47,0,1.79.31,1.79,2v9c0,1.64-.32,1.95-1.79,1.95Zm-2.56-2a6,6,0,0,1-3.67,1.07c-2.92,0-4.08-3-4.08-6.3C53,4.31,53.51,1,56.59,1A3.64,3.64,0,0,1,60.1,4.14h.61L60.58.63A13.39,13.39,0,0,0,56.38,0c-4.68,0-5.86,3.11-5.86,6.93,0,4.73,1.64,7.48,6.2,7.48a9.13,9.13,0,0,0,4-.8Zm-32.17,2H38.81l.12-3h-.61c-.06,1.32-.65,2.08-2.45,2.08H33.94c-1.1,0-1.26-.1-1.26-1.51V7.37h2.75c1.36,0,1.57.44,1.57,1.7h.57V4.73H37c0,1.38-.21,1.68-1.57,1.68H32.68V2.69c0-1.18.23-1.51,1.26-1.51h1.34c2.35,0,2.62.94,2.71,2.08h.61l-.13-3H28.58V.74c1.47,0,1.79.31,1.79,2v9c0,1.64-.32,1.95-1.79,1.95Zm-15.9,0h5.88v-.53c-1.49,0-1.78-.31-1.78-1.95V7.39h5.58v4.33c0,1.64-.31,1.95-1.78,1.95v.53h5.88v-.53c-1.49,0-1.79-.31-1.79-1.95v-9c0-1.64.3-1.95,1.79-1.95V.21H20.58V.74c1.47,0,1.78.31,1.78,2V6.43H16.78V2.69c0-1.64.29-1.95,1.78-1.95V.21H12.68V.74c1.49,0,1.79.31,1.79,2v9c0,1.64-.3,1.95-1.79,1.95Zm-10.16,0H8.4v-.53c-1.47,0-1.79-.31-1.79-1.95V1.18h.8c2.21,0,2.69.73,2.9,2.29h.61L10.81.21H.13L0,3.47H.61c.23-1.54.67-2.29,2.88-2.29H4.3V11.72c0,1.64-.31,1.95-1.78,1.95Z"/></g></svg>