<svg id="a5333ef0-2afd-4920-9f61-771193921a30" data-name="Layer 1" xmlns="http://www.w3.org/2000/svg" viewBox="0 0 172.13 54.46"><title>heading-menus-white</title><path d="M158.13,53.55a13.69,13.69,0,0,0,14-13.58c0-12.18-14.56-14.42-14.56-25.48,0-6.58,5.39-11.69,12.18-11.69V1a13.67,13.67,0,0,0-14,13.51c0,12.11,14.56,14.42,14.56,25.48,0,6.58-5.39,11.69-12.18,11.69Zm-38-12.74a13.62,13.62,0,1,0,27.23,0V1h-1.82V40.81a11.8,11.8,0,1,1-23.59,0V1h-1.82ZM77.56,53.48h1.82V6.37L110,54.46V1h-1.82V48.16L77.56,0ZM43,53.48H70.21V51.66H44.8V27.23H68.39V25.41H44.8V2.8H70.21V1H43Zm-43,0H1.82V4.34L16.24,18.76,30.66,4.34V53.48h1.82V0L16.24,16.24,0,0Z" fill="#fff"/></svg>